<?xml version="1.0" standalone="yes"?>
<svg xmlns="http://www.w3.org/2000/svg" width="256" height="256">
<path style="fill:#ffffff; stroke:none;" d="M0 0L0 256L256 256L256 0L0 0z"/>
<path style="fill:#3c41b5; stroke:none;" d="M116 127C112.341 123.341 107.715 119.667 105.318 115C102.887 110.269 104.687 104.055 97.9954 102.452C91.3436 100.858 88.636 107.604 83.8958 110.482C81.6118 111.869 79.1816 112.812 77.0903 114.532C73.2902 117.658 70.7799 122.042 67.9614 126C63.2329 132.64 57.6023 140.419 66.3295 147.005C71.8219 151.151 81.4096 150.982 88 151C84.2367 152.622 79.3354 153.29 76.4344 156.394C68.1654 165.243 83.273 167.996 89 168C89.0208 170.85 89.1898 173.271 90 176C85.581 178.32 78.7822 186.611 85.3179 190.972C89.7394 193.923 99.8518 192 105 192C110.757 192 118.236 193.267 123.791 191.683C126.653 190.867 128.578 187.925 131.043 186.347C143.121 178.615 151.909 168.593 154.535 154C155.529 148.481 155 142.588 155 137C162.29 136.018 169.291 133.435 174.996 128.671C179.118 125.23 182.542 120.844 184.866 116C187.174 111.186 187.982 106.292 187.999 101C188.022 93.8974 186.714 87.1107 182.871 81.0008C168.748 58.5457 134.519 58.2431 120.468 81C117.306 86.1215 115.51 92.0001 115.09 98C114.432 107.384 114.283 117.753 116 127z"/>
<path style="fill:#ffffff; stroke:none;" d="M95 145C94.7124 153.863 88.1745 157.792 80 159L80 162C85.7877 162 91.2813 161.934 96.9946 161.059C98.2946 160.859 100.953 160.369 101.369 162.25C102.003 165.12 96.2911 166.419 95.0424 168.418C92.9365 171.79 95.6004 176.838 97 180C92.6515 180.655 89.3941 181.573 88 186L123 186C125.506 181.408 130.963 180.611 134.996 177.471C141.042 172.764 145.749 165.316 147.957 158C149.712 152.183 151.272 144.014 149.427 138.055C147.718 132.531 140.241 130.343 137.442 125C130.046 110.879 144.203 100.008 157 100L156 104C139.103 100.716 132.654 125.485 149.001 131.015C152.492 132.197 156.513 131.371 160 130.485C164.522 129.337 168.564 127.032 171.996 123.895C193.273 104.445 179.373 66.0574 149 69.1744C129.018 71.225 119.57 88.5396 120.015 107C120.158 112.942 124.116 125.999 118.682 130.458C115.975 132.678 113.276 130.763 111 128.965C106.734 125.596 101.45 121.302 99.588 116C98.8183 113.809 99.4123 108.209 95.8958 108.207C92.5898 108.205 91.1566 113.097 88.7261 114.725C85.9597 116.579 82.6868 117.236 80.0401 119.394C76.1743 122.544 74.0706 126.981 71.2338 130.961C69.1167 133.931 65.9096 136.915 68.1836 140.779C72.3513 147.861 88.1265 145 95 145z"/>
<path style="fill:#3c41b5; stroke:none;" d="M80 132C82.4578 132.646 83.5422 132.646 86 132C84.0247 128.528 81.9753 128.528 80 132z"/>
</svg>
